<mxfile host="65bd71144e">
    <diagram id="bcEJDeQBPhTr-g2Y41wK" name="Page-1">
        <mxGraphModel dx="1691" dy="592" grid="1" gridSize="10" guides="1" tooltips="1" connect="1" arrows="1" fold="1" page="1" pageScale="1" pageWidth="850" pageHeight="1100" math="0" shadow="0">
            <root>
                <mxCell id="0"/>
                <mxCell id="1" parent="0"/>
                <mxCell id="2" value="INCIDENCIA" style="rounded=0;whiteSpace=wrap;html=1;labelBorderColor=none;labelBackgroundColor=default;" parent="1" vertex="1">
                    <mxGeometry x="-330" y="540" width="120" height="60" as="geometry"/>
                </mxCell>
                <mxCell id="22" style="edgeStyle=none;shape=link;html=1;labelBorderColor=none;labelBackgroundColor=default;" edge="1" parent="1" source="3" target="11">
                    <mxGeometry relative="1" as="geometry"/>
                </mxCell>
                <mxCell id="25" style="edgeStyle=none;shape=link;html=1;labelBorderColor=none;labelBackgroundColor=default;" edge="1" parent="1" source="3">
                    <mxGeometry relative="1" as="geometry">
                        <mxPoint x="50" y="300" as="targetPoint"/>
                    </mxGeometry>
                </mxCell>
                <mxCell id="3" value="TRAINER" style="rounded=0;whiteSpace=wrap;html=1;labelBorderColor=none;labelBackgroundColor=default;" vertex="1" parent="1">
                    <mxGeometry x="-150" y="270" width="110" height="60" as="geometry"/>
                </mxCell>
                <mxCell id="29" style="edgeStyle=none;shape=link;html=1;labelBorderColor=none;labelBackgroundColor=default;" edge="1" parent="1" source="4" target="10">
                    <mxGeometry relative="1" as="geometry"/>
                </mxCell>
                <mxCell id="4" value="SALON" style="rounded=0;whiteSpace=wrap;html=1;labelBorderColor=none;labelBackgroundColor=default;" vertex="1" parent="1">
                    <mxGeometry x="30" y="400" width="120" height="60" as="geometry"/>
                </mxCell>
                <mxCell id="23" style="edgeStyle=none;shape=link;html=1;labelBorderColor=none;labelBackgroundColor=default;" edge="1" parent="1" source="5" target="11">
                    <mxGeometry relative="1" as="geometry"/>
                </mxCell>
                <mxCell id="5" value="CAMPER" style="rounded=0;whiteSpace=wrap;html=1;labelBorderColor=none;labelBackgroundColor=default;" vertex="1" parent="1">
                    <mxGeometry x="-520" y="270" width="130" height="60" as="geometry"/>
                </mxCell>
                <mxCell id="6" value="AREA" style="rounded=0;whiteSpace=wrap;html=1;labelBorderColor=none;labelBackgroundColor=default;" vertex="1" parent="1">
                    <mxGeometry x="30" y="650" width="120" height="60" as="geometry"/>
                </mxCell>
                <mxCell id="7" value="EQUIPO" style="rounded=0;whiteSpace=wrap;html=1;labelBorderColor=none;labelBackgroundColor=default;" vertex="1" parent="1">
                    <mxGeometry x="365" y="400" width="120" height="60" as="geometry"/>
                </mxCell>
                <mxCell id="20" value="" style="edgeStyle=none;html=1;shape=link;labelBorderColor=none;labelBackgroundColor=default;" edge="1" parent="1" source="8" target="3">
                    <mxGeometry relative="1" as="geometry"/>
                </mxCell>
                <mxCell id="8" value="ASIGNAR" style="rhombus;whiteSpace=wrap;html=1;labelBorderColor=none;labelBackgroundColor=default;" vertex="1" parent="1">
                    <mxGeometry x="-310" y="260" width="80" height="80" as="geometry"/>
                </mxCell>
                <mxCell id="26" style="edgeStyle=none;shape=link;html=1;labelBorderColor=none;labelBackgroundColor=default;" edge="1" parent="1" source="9" target="4">
                    <mxGeometry relative="1" as="geometry"/>
                </mxCell>
                <mxCell id="9" value="ASIGNAR" style="rhombus;whiteSpace=wrap;html=1;labelBorderColor=none;labelBackgroundColor=default;" vertex="1" parent="1">
                    <mxGeometry x="50" y="260" width="80" height="80" as="geometry"/>
                </mxCell>
                <mxCell id="30" style="edgeStyle=none;shape=link;html=1;labelBorderColor=none;labelBackgroundColor=default;" edge="1" parent="1" source="10" target="7">
                    <mxGeometry relative="1" as="geometry"/>
                </mxCell>
                <mxCell id="10" value="CONTIENE" style="rhombus;whiteSpace=wrap;html=1;labelBorderColor=none;labelBackgroundColor=default;" vertex="1" parent="1">
                    <mxGeometry x="220" y="390" width="80" height="80" as="geometry"/>
                </mxCell>
                <mxCell id="24" style="edgeStyle=none;shape=link;html=1;labelBorderColor=none;labelBackgroundColor=default;" edge="1" parent="1" source="11" target="2">
                    <mxGeometry relative="1" as="geometry"/>
                </mxCell>
                <mxCell id="11" value="REPORTE" style="rhombus;whiteSpace=wrap;html=1;labelBorderColor=none;labelBackgroundColor=default;" vertex="1" parent="1">
                    <mxGeometry x="-310" y="380" width="80" height="80" as="geometry"/>
                </mxCell>
                <mxCell id="27" style="edgeStyle=none;shape=link;html=1;entryX=0.5;entryY=1;entryDx=0;entryDy=0;labelBorderColor=none;labelBackgroundColor=default;" edge="1" parent="1" source="12" target="4">
                    <mxGeometry relative="1" as="geometry"/>
                </mxCell>
                <mxCell id="28" style="edgeStyle=none;shape=link;html=1;labelBorderColor=none;labelBackgroundColor=default;" edge="1" parent="1" source="12" target="6">
                    <mxGeometry relative="1" as="geometry"/>
                </mxCell>
                <mxCell id="12" value="CONTIENE" style="rhombus;whiteSpace=wrap;html=1;labelBorderColor=none;labelBackgroundColor=default;" vertex="1" parent="1">
                    <mxGeometry x="50" y="510" width="80" height="80" as="geometry"/>
                </mxCell>
                <mxCell id="21" value="" style="edgeStyle=none;html=1;shape=link;labelBorderColor=none;labelBackgroundColor=default;" edge="1" parent="1">
                    <mxGeometry relative="1" as="geometry">
                        <mxPoint x="-390" y="299.8" as="sourcePoint"/>
                        <mxPoint x="-310" y="299.8" as="targetPoint"/>
                    </mxGeometry>
                </mxCell>
                <mxCell id="31" value="M" style="text;html=1;align=center;verticalAlign=middle;resizable=0;points=[];autosize=1;strokeColor=none;fillColor=none;labelBorderColor=none;labelBackgroundColor=default;" vertex="1" parent="1">
                    <mxGeometry x="-390" y="270" width="30" height="30" as="geometry"/>
                </mxCell>
                <mxCell id="32" value="1&amp;nbsp;" style="text;html=1;align=center;verticalAlign=middle;resizable=0;points=[];autosize=1;strokeColor=none;fillColor=none;labelBorderColor=none;labelBackgroundColor=default;" vertex="1" parent="1">
                    <mxGeometry x="-430" y="330" width="30" height="30" as="geometry"/>
                </mxCell>
                <mxCell id="33" value="1&amp;nbsp;" style="text;html=1;align=center;verticalAlign=middle;resizable=0;points=[];autosize=1;strokeColor=none;fillColor=none;labelBorderColor=none;labelBackgroundColor=default;" vertex="1" parent="1">
                    <mxGeometry x="-180" y="270" width="30" height="30" as="geometry"/>
                </mxCell>
                <mxCell id="34" value="1&amp;nbsp;" style="text;html=1;align=center;verticalAlign=middle;resizable=0;points=[];autosize=1;strokeColor=none;fillColor=none;labelBorderColor=none;labelBackgroundColor=default;" vertex="1" parent="1">
                    <mxGeometry x="-140" y="330" width="30" height="30" as="geometry"/>
                </mxCell>
                <mxCell id="35" value="M" style="text;html=1;align=center;verticalAlign=middle;resizable=0;points=[];autosize=1;strokeColor=none;fillColor=none;labelBorderColor=none;labelBackgroundColor=default;" vertex="1" parent="1">
                    <mxGeometry x="-310" y="500" width="30" height="30" as="geometry"/>
                </mxCell>
                <mxCell id="36" value="M" style="text;html=1;align=center;verticalAlign=middle;resizable=0;points=[];autosize=1;strokeColor=none;fillColor=none;labelBorderColor=none;labelBackgroundColor=default;" vertex="1" parent="1">
                    <mxGeometry x="-260" y="500" width="30" height="30" as="geometry"/>
                </mxCell>
                <mxCell id="37" value="1&lt;span style=&quot;color: rgba(0, 0, 0, 0); font-family: monospace; font-size: 0px; text-align: start;&quot;&gt;%3CmxGraphModel%3E%3Croot%3E%3CmxCell%20id%3D%220%22%2F%3E%3CmxCell%20id%3D%221%22%20parent%3D%220%22%2F%3E%3CmxCell%20id%3D%222%22%20value%3D%22M%22%20style%3D%22text%3Bhtml%3D1%3Balign%3Dcenter%3BverticalAlign%3Dmiddle%3Bresizable%3D0%3Bpoints%3D%5B%5D%3Bautosize%3D1%3BstrokeColor%3Dnone%3BfillColor%3Dnone%3B%22%20vertex%3D%221%22%20parent%3D%221%22%3E%3CmxGeometry%20x%3D%22-310%22%20y%3D%22500%22%20width%3D%2230%22%20height%3D%2230%22%20as%3D%22geometry%22%2F%3E%3C%2FmxCell%3E%3C%2Froot%3E%3C%2FmxGraphModel%3E&lt;/span&gt;" style="text;html=1;align=center;verticalAlign=middle;resizable=0;points=[];autosize=1;strokeColor=none;fillColor=none;labelBorderColor=none;labelBackgroundColor=default;" vertex="1" parent="1">
                    <mxGeometry x="-40" y="300" width="30" height="30" as="geometry"/>
                </mxCell>
                <mxCell id="38" value="M" style="text;html=1;align=center;verticalAlign=middle;resizable=0;points=[];autosize=1;strokeColor=none;fillColor=none;labelBorderColor=none;labelBackgroundColor=default;" vertex="1" parent="1">
                    <mxGeometry x="60" y="370" width="30" height="30" as="geometry"/>
                </mxCell>
                <mxCell id="39" value="1" style="text;html=1;align=center;verticalAlign=middle;resizable=0;points=[];autosize=1;strokeColor=none;fillColor=none;labelBorderColor=none;labelBackgroundColor=default;" vertex="1" parent="1">
                    <mxGeometry x="150" y="400" width="30" height="30" as="geometry"/>
                </mxCell>
                <mxCell id="40" value="M" style="text;html=1;align=center;verticalAlign=middle;resizable=0;points=[];autosize=1;strokeColor=none;fillColor=none;labelBorderColor=none;labelBackgroundColor=default;" vertex="1" parent="1">
                    <mxGeometry x="335" y="400" width="30" height="30" as="geometry"/>
                </mxCell>
                <mxCell id="41" value="1" style="text;html=1;align=center;verticalAlign=middle;resizable=0;points=[];autosize=1;strokeColor=none;fillColor=none;labelBorderColor=none;labelBackgroundColor=default;" vertex="1" parent="1">
                    <mxGeometry x="90" y="620" width="30" height="30" as="geometry"/>
                </mxCell>
                <mxCell id="42" value="M" style="text;html=1;align=center;verticalAlign=middle;resizable=0;points=[];autosize=1;strokeColor=none;fillColor=none;labelBorderColor=none;labelBackgroundColor=default;" vertex="1" parent="1">
                    <mxGeometry x="90" y="460" width="30" height="30" as="geometry"/>
                </mxCell>
            </root>
        </mxGraphModel>
    </diagram>
</mxfile>